# xmcd CD database file
#
# Track frame offsets:
#	150
#	32854
#	60095
#	86151
#	113719
#	152806
#	175843
#	206507
#	244224
#	271433
#
# Disc length: 4176 seconds
#
# Revision: 0
# Processed by: cddbd v1.5.2PL0 Copyright (c) Steve Scherf et al.
# Submitted via: CDex 1.70beta2
#
DISCID=82104e0a
DTITLE=Straight Up! (Trio) - Another Year
DYEAR=2007
DGENRE=Jazz
TTITLE0=Another Year
TTITLE1=The Upside To The Downside
TTITLE2=It's In Your Eyes
TTITLE3=Karen's Smile
TTITLE4=It's Done As You Believe
TTITLE5=Tune In/Tune Out
TTITLE6=88 Keys To Happiness
TTITLE7=Quetta
TTITLE8=A Morning With RJ
TTITLE9=Journey
EXTD=YEAR: 2007
EXTT0=
EXTT1=
EXTT2=
EXTT3=
EXTT4=
EXTT5=
EXTT6=
EXTT7=
EXTT8=
EXTT9=
PLAYORDER=
